<svg xmlns="http://www.w3.org/2000/svg" xmlns:xlink="http://www.w3.org/1999/xlink" width="500" zoomAndPan="magnify" viewBox="0 0 375 374.999991" height="500" preserveAspectRatio="xMidYMid meet" version="1.0"><defs><g/><clipPath id="1d4c8bac20"><path d="M 184.652344 78.214844 L 190.652344 78.214844 L 190.652344 265.714844 L 184.652344 265.714844 Z M 184.652344 78.214844 " clip-rule="nonzero"/></clipPath></defs><g fill="#ffffff" fill-opacity="1"><g transform="translate(126.817804, 290.999513)"><g><path d="M 7.140625 0 L 1.671875 0 L 1.671875 -18.796875 L 7.140625 -18.796875 C 10.328125 -18.796875 12.765625 -17.984375 14.453125 -16.359375 C 16.140625 -14.734375 16.984375 -12.410156 16.984375 -9.390625 C 16.984375 -6.378906 16.132812 -4.0625 14.4375 -2.4375 C 12.75 -0.8125 10.316406 0 7.140625 0 Z M 5.21875 -15.625 L 5.21875 -3.171875 L 7.09375 -3.171875 C 8.34375 -3.171875 9.441406 -3.363281 10.390625 -3.75 C 11.347656 -4.144531 12.09375 -4.796875 12.625 -5.703125 C 13.15625 -6.617188 13.421875 -7.847656 13.421875 -9.390625 C 13.421875 -10.847656 13.160156 -12.03125 12.640625 -12.9375 C 12.117188 -13.851562 11.382812 -14.53125 10.4375 -14.96875 C 9.488281 -15.40625 8.382812 -15.625 7.125 -15.625 Z M 5.21875 -15.625 "/></g></g></g><g fill="#ffffff" fill-opacity="1"><g transform="translate(144.750535, 290.999513)"><g><path d="M 7.984375 0.265625 C 6.566406 0.265625 5.328125 -0.0390625 4.265625 -0.65625 C 3.210938 -1.269531 2.394531 -2.109375 1.8125 -3.171875 C 1.226562 -4.242188 0.9375 -5.460938 0.9375 -6.828125 C 0.9375 -7.734375 1.078125 -8.617188 1.359375 -9.484375 C 1.640625 -10.359375 2.066406 -11.144531 2.640625 -11.84375 C 3.210938 -12.539062 3.929688 -13.09375 4.796875 -13.5 C 5.671875 -13.914062 6.703125 -14.125 7.890625 -14.125 C 8.773438 -14.125 9.628906 -13.984375 10.453125 -13.703125 C 11.285156 -13.421875 12.03125 -12.988281 12.6875 -12.40625 C 13.34375 -11.820312 13.863281 -11.078125 14.25 -10.171875 C 14.632812 -9.273438 14.828125 -8.203125 14.828125 -6.953125 L 14.828125 -6.234375 L 4.390625 -6.234375 C 4.421875 -5.941406 4.484375 -5.648438 4.578125 -5.359375 C 4.679688 -5.066406 4.789062 -4.816406 4.90625 -4.609375 C 5.226562 -3.960938 5.664062 -3.460938 6.21875 -3.109375 C 6.769531 -2.765625 7.398438 -2.59375 8.109375 -2.59375 C 8.898438 -2.59375 9.5625 -2.796875 10.09375 -3.203125 C 10.625 -3.609375 11 -4.09375 11.21875 -4.65625 L 14.609375 -4.65625 C 14.347656 -3.769531 13.929688 -2.953125 13.359375 -2.203125 C 12.785156 -1.453125 12.050781 -0.851562 11.15625 -0.40625 C 10.269531 0.0390625 9.210938 0.265625 7.984375 0.265625 Z M 4.53125 -8.71875 L 11.4375 -8.71875 C 11.414062 -8.90625 11.367188 -9.113281 11.296875 -9.34375 C 11.222656 -9.570312 11.097656 -9.789062 10.921875 -10 C 10.609375 -10.5 10.191406 -10.867188 9.671875 -11.109375 C 9.148438 -11.359375 8.585938 -11.484375 7.984375 -11.484375 C 7.378906 -11.484375 6.820312 -11.359375 6.3125 -11.109375 C 5.8125 -10.867188 5.398438 -10.5 5.078125 -10 C 4.898438 -9.789062 4.769531 -9.570312 4.6875 -9.34375 C 4.613281 -9.113281 4.5625 -8.90625 4.53125 -8.71875 Z M 4.53125 -8.71875 "/></g></g></g><g fill="#ffffff" fill-opacity="1"><g transform="translate(160.515571, 290.999513)"><g><path d="M 8.03125 0 L 5.390625 0 L 0.296875 -13.828125 L 3.84375 -13.828125 L 6.703125 -5.09375 L 9.609375 -13.828125 L 13.15625 -13.828125 Z M 8.03125 0 "/></g></g></g><g fill="#ffffff" fill-opacity="1"><g transform="translate(173.965113, 290.999513)"><g><path d="M 7.984375 0.265625 C 6.566406 0.265625 5.328125 -0.0390625 4.265625 -0.65625 C 3.210938 -1.269531 2.394531 -2.109375 1.8125 -3.171875 C 1.226562 -4.242188 0.9375 -5.460938 0.9375 -6.828125 C 0.9375 -7.734375 1.078125 -8.617188 1.359375 -9.484375 C 1.640625 -10.359375 2.066406 -11.144531 2.640625 -11.84375 C 3.210938 -12.539062 3.929688 -13.09375 4.796875 -13.5 C 5.671875 -13.914062 6.703125 -14.125 7.890625 -14.125 C 8.773438 -14.125 9.628906 -13.984375 10.453125 -13.703125 C 11.285156 -13.421875 12.03125 -12.988281 12.6875 -12.40625 C 13.34375 -11.820312 13.863281 -11.078125 14.25 -10.171875 C 14.632812 -9.273438 14.828125 -8.203125 14.828125 -6.953125 L 14.828125 -6.234375 L 4.390625 -6.234375 C 4.421875 -5.941406 4.484375 -5.648438 4.578125 -5.359375 C 4.679688 -5.066406 4.789062 -4.816406 4.90625 -4.609375 C 5.226562 -3.960938 5.664062 -3.460938 6.21875 -3.109375 C 6.769531 -2.765625 7.398438 -2.59375 8.109375 -2.59375 C 8.898438 -2.59375 9.5625 -2.796875 10.09375 -3.203125 C 10.625 -3.609375 11 -4.09375 11.21875 -4.65625 L 14.609375 -4.65625 C 14.347656 -3.769531 13.929688 -2.953125 13.359375 -2.203125 C 12.785156 -1.453125 12.050781 -0.851562 11.15625 -0.40625 C 10.269531 0.0390625 9.210938 0.265625 7.984375 0.265625 Z M 4.53125 -8.71875 L 11.4375 -8.71875 C 11.414062 -8.90625 11.367188 -9.113281 11.296875 -9.34375 C 11.222656 -9.570312 11.097656 -9.789062 10.921875 -10 C 10.609375 -10.5 10.191406 -10.867188 9.671875 -11.109375 C 9.148438 -11.359375 8.585938 -11.484375 7.984375 -11.484375 C 7.378906 -11.484375 6.820312 -11.359375 6.3125 -11.109375 C 5.8125 -10.867188 5.398438 -10.5 5.078125 -10 C 4.898438 -9.789062 4.769531 -9.570312 4.6875 -9.34375 C 4.613281 -9.113281 4.5625 -8.90625 4.53125 -8.71875 Z M 4.53125 -8.71875 "/></g></g></g><g fill="#ffde59" fill-opacity="1"><g transform="translate(189.735769, 290.999513)"><g><path d="M 6.796875 0 L 4.65625 0 C 3.632812 0 2.84375 -0.234375 2.28125 -0.703125 C 1.726562 -1.179688 1.453125 -1.957031 1.453125 -3.03125 L 1.453125 -18.796875 L 4.78125 -18.796875 L 4.78125 -4.015625 C 4.78125 -3.554688 4.863281 -3.234375 5.03125 -3.046875 C 5.207031 -2.859375 5.5 -2.765625 5.90625 -2.765625 L 6.796875 -2.765625 Z M 6.796875 0 "/></g></g></g><g fill="#ffde59" fill-opacity="1"><g transform="translate(197.174897, 290.999513)"><g><path d="M 8.015625 0.265625 C 6.628906 0.265625 5.398438 -0.0351562 4.328125 -0.640625 C 3.265625 -1.242188 2.429688 -2.09375 1.828125 -3.1875 C 1.234375 -4.28125 0.9375 -5.550781 0.9375 -7 C 0.9375 -8.394531 1.234375 -9.625 1.828125 -10.6875 C 2.429688 -11.757812 3.257812 -12.597656 4.3125 -13.203125 C 5.375 -13.816406 6.609375 -14.125 8.015625 -14.125 C 9.410156 -14.125 10.640625 -13.816406 11.703125 -13.203125 C 12.773438 -12.597656 13.609375 -11.757812 14.203125 -10.6875 C 14.804688 -9.625 15.109375 -8.394531 15.109375 -7 C 15.109375 -5.570312 14.8125 -4.3125 14.21875 -3.21875 C 13.625 -2.125 12.789062 -1.269531 11.71875 -0.65625 C 10.65625 -0.0390625 9.421875 0.265625 8.015625 0.265625 Z M 8.015625 -2.59375 C 9.097656 -2.59375 9.972656 -3 10.640625 -3.8125 C 11.316406 -4.632812 11.65625 -5.695312 11.65625 -7 C 11.65625 -7.820312 11.503906 -8.550781 11.203125 -9.1875 C 10.898438 -9.832031 10.472656 -10.335938 9.921875 -10.703125 C 9.378906 -11.078125 8.742188 -11.265625 8.015625 -11.265625 C 7.304688 -11.265625 6.671875 -11.082031 6.109375 -10.71875 C 5.546875 -10.351562 5.109375 -9.847656 4.796875 -9.203125 C 4.492188 -8.566406 4.34375 -7.832031 4.34375 -7 C 4.34375 -5.6875 4.6875 -4.625 5.375 -3.8125 C 6.0625 -3 6.941406 -2.59375 8.015625 -2.59375 Z M 8.015625 -2.59375 "/></g></g></g><g fill="#ffde59" fill-opacity="1"><g transform="translate(213.235523, 290.999513)"><g><path d="M 8.765625 -14.09375 C 9.984375 -14.09375 11.046875 -13.785156 11.953125 -13.171875 C 12.867188 -12.566406 13.582031 -11.722656 14.09375 -10.640625 C 14.601562 -9.554688 14.859375 -8.3125 14.859375 -6.90625 C 14.859375 -5.488281 14.601562 -4.238281 14.09375 -3.15625 C 13.582031 -2.070312 12.867188 -1.222656 11.953125 -0.609375 C 11.046875 -0.00390625 9.984375 0.296875 8.765625 0.296875 C 7.960938 0.296875 7.25 0.15625 6.625 -0.125 C 6 -0.414062 5.410156 -0.957031 4.859375 -1.75 L 4.859375 4.984375 L 1.53125 4.984375 L 1.53125 -13.828125 L 4.859375 -13.828125 L 4.859375 -12.078125 C 5.410156 -12.847656 6 -13.375 6.625 -13.65625 C 7.25 -13.945312 7.960938 -14.09375 8.765625 -14.09375 Z M 8.015625 -11.234375 C 6.960938 -11.234375 6.101562 -10.832031 5.4375 -10.03125 C 4.769531 -9.226562 4.4375 -8.1875 4.4375 -6.90625 C 4.4375 -5.625 4.769531 -4.578125 5.4375 -3.765625 C 6.101562 -2.960938 6.960938 -2.5625 8.015625 -2.5625 C 9.078125 -2.5625 9.921875 -2.972656 10.546875 -3.796875 C 11.179688 -4.617188 11.5 -5.65625 11.5 -6.90625 C 11.5 -8.164062 11.179688 -9.203125 10.546875 -10.015625 C 9.921875 -10.828125 9.078125 -11.234375 8.015625 -11.234375 Z M 8.015625 -11.234375 "/></g></g></g><g fill="#ffde59" fill-opacity="1"><g transform="translate(229.074454, 290.999513)"><g><path d="M 7.984375 0.265625 C 6.566406 0.265625 5.328125 -0.0390625 4.265625 -0.65625 C 3.210938 -1.269531 2.394531 -2.109375 1.8125 -3.171875 C 1.226562 -4.242188 0.9375 -5.460938 0.9375 -6.828125 C 0.9375 -7.734375 1.078125 -8.617188 1.359375 -9.484375 C 1.640625 -10.359375 2.066406 -11.144531 2.640625 -11.84375 C 3.210938 -12.539062 3.929688 -13.09375 4.796875 -13.5 C 5.671875 -13.914062 6.703125 -14.125 7.890625 -14.125 C 8.773438 -14.125 9.628906 -13.984375 10.453125 -13.703125 C 11.285156 -13.421875 12.03125 -12.988281 12.6875 -12.40625 C 13.34375 -11.820312 13.863281 -11.078125 14.25 -10.171875 C 14.632812 -9.273438 14.828125 -8.203125 14.828125 -6.953125 L 14.828125 -6.234375 L 4.390625 -6.234375 C 4.421875 -5.941406 4.484375 -5.648438 4.578125 -5.359375 C 4.679688 -5.066406 4.789062 -4.816406 4.90625 -4.609375 C 5.226562 -3.960938 5.664062 -3.460938 6.21875 -3.109375 C 6.769531 -2.765625 7.398438 -2.59375 8.109375 -2.59375 C 8.898438 -2.59375 9.5625 -2.796875 10.09375 -3.203125 C 10.625 -3.609375 11 -4.09375 11.21875 -4.65625 L 14.609375 -4.65625 C 14.347656 -3.769531 13.929688 -2.953125 13.359375 -2.203125 C 12.785156 -1.453125 12.050781 -0.851562 11.15625 -0.40625 C 10.269531 0.0390625 9.210938 0.265625 7.984375 0.265625 Z M 4.53125 -8.71875 L 11.4375 -8.71875 C 11.414062 -8.90625 11.367188 -9.113281 11.296875 -9.34375 C 11.222656 -9.570312 11.097656 -9.789062 10.921875 -10 C 10.609375 -10.5 10.191406 -10.867188 9.671875 -11.109375 C 9.148438 -11.359375 8.585938 -11.484375 7.984375 -11.484375 C 7.378906 -11.484375 6.820312 -11.359375 6.3125 -11.109375 C 5.8125 -10.867188 5.398438 -10.5 5.078125 -10 C 4.898438 -9.789062 4.769531 -9.570312 4.6875 -9.34375 C 4.613281 -9.113281 4.5625 -8.90625 4.53125 -8.71875 Z M 4.53125 -8.71875 "/></g></g></g><g fill="#ffde59" fill-opacity="1"><g transform="translate(244.83949, 290.999513)"><g><path d="M 4.828125 0 L 1.5 0 L 1.5 -13.828125 L 4.828125 -13.828125 L 4.828125 -12.171875 C 5.359375 -12.890625 5.945312 -13.394531 6.59375 -13.6875 C 7.238281 -13.976562 7.960938 -14.125 8.765625 -14.125 L 9.171875 -14.125 L 9.171875 -10.921875 L 8.40625 -10.921875 C 7.84375 -10.921875 7.359375 -10.84375 6.953125 -10.6875 C 6.554688 -10.539062 6.21875 -10.335938 5.9375 -10.078125 C 5.570312 -9.710938 5.296875 -9.238281 5.109375 -8.65625 C 4.921875 -8.070312 4.828125 -7.320312 4.828125 -6.40625 Z M 4.828125 0 "/></g></g></g><g clip-path="url(#1d4c8bac20)"><path fill="#ffffff" d="M 184.652344 78.214844 L 190.652344 78.214844 L 190.652344 265.714844 L 184.652344 265.714844 Z M 184.652344 78.214844 " fill-opacity="1" fill-rule="nonzero"/></g><g fill="#ffffff" fill-opacity="1"><g transform="translate(68.645933, 238.366645)"><g><path d="M 15.90625 -126.40625 L 55.25 -126.40625 C 73.175781 -126.40625 86.1875 -123.851562 94.28125 -118.75 C 102.375 -113.644531 106.421875 -105.53125 106.421875 -94.40625 C 106.421875 -86.851562 104.648438 -80.65625 101.109375 -75.8125 C 97.566406 -70.976562 92.851562 -68.070312 86.96875 -67.09375 L 86.96875 -66.21875 C 94.988281 -64.4375 100.769531 -61.09375 104.3125 -56.1875 C 107.851562 -51.289062 109.625 -44.78125 109.625 -36.65625 C 109.625 -25.125 105.457031 -16.128906 97.125 -9.671875 C 88.800781 -3.222656 77.492188 0 63.203125 0 L 15.90625 0 Z M 42.703125 -76.34375 L 58.265625 -76.34375 C 65.535156 -76.34375 70.796875 -77.460938 74.046875 -79.703125 C 77.304688 -81.953125 78.9375 -85.671875 78.9375 -90.859375 C 78.9375 -95.703125 77.160156 -99.175781 73.609375 -101.28125 C 70.066406 -103.382812 64.460938 -104.4375 56.796875 -104.4375 L 42.703125 -104.4375 Z M 42.703125 -55.078125 L 42.703125 -22.140625 L 60.171875 -22.140625 C 67.546875 -22.140625 72.988281 -23.550781 76.5 -26.375 C 80.019531 -29.195312 81.78125 -33.519531 81.78125 -39.34375 C 81.78125 -49.832031 74.289062 -55.078125 59.3125 -55.078125 Z M 42.703125 -55.078125 "/></g></g></g><g fill="#ffde59" fill-opacity="1"><g transform="translate(190.650431, 238.366645)"><g><path d="M 63.890625 -70.984375 L 114.03125 -70.984375 L 114.03125 -5.453125 C 105.90625 -2.796875 98.253906 -0.9375 91.078125 0.125 C 83.898438 1.195312 76.566406 1.734375 69.078125 1.734375 C 50.003906 1.734375 35.4375 -3.867188 25.375 -15.078125 C 15.3125 -26.296875 10.28125 -42.394531 10.28125 -63.375 C 10.28125 -83.78125 16.113281 -99.6875 27.78125 -111.09375 C 39.457031 -122.507812 55.644531 -128.21875 76.34375 -128.21875 C 89.3125 -128.21875 101.816406 -125.625 113.859375 -120.4375 L 104.953125 -99 C 95.734375 -103.601562 86.140625 -105.90625 76.171875 -105.90625 C 64.585938 -105.90625 55.304688 -102.015625 48.328125 -94.234375 C 41.359375 -86.453125 37.875 -75.992188 37.875 -62.859375 C 37.875 -49.140625 40.679688 -38.660156 46.296875 -31.421875 C 51.921875 -24.191406 60.09375 -20.578125 70.8125 -20.578125 C 76.394531 -20.578125 82.070312 -21.15625 87.84375 -22.3125 L 87.84375 -48.671875 L 63.890625 -48.671875 Z M 63.890625 -70.984375 "/></g></g></g></svg>